<svg xmlns="http://www.w3.org/2000/svg" class="camara" width="40" height="40" viewBox="0 0 40 40"><defs><style>.camara .a{fill:#1880c3;}.camara .b{fill:none;stroke:#fcfcfc;stroke-linecap:round;stroke-width:1.5px;}</style></defs><g transform="translate(-472 -375)"><circle class="a" cx="20" cy="20" r="20" transform="translate(472 375)"/><g transform="translate(478.5 379.5)"><path class="b" d="M25.944,22.278A2.222,2.222,0,0,1,23.722,24.5h-20A2.222,2.222,0,0,1,1.5,22.278V10.056A2.222,2.222,0,0,1,3.722,7.833H8.167L10.389,4.5h6.667l2.222,3.333h4.444a2.222,2.222,0,0,1,2.222,2.222Z"/><path class="b" d="M20.865,17.933A4.433,4.433,0,1,1,16.433,13.5,4.433,4.433,0,0,1,20.865,17.933Z" transform="translate(-2.71 -2.319)"/></g></g></svg> 