<svg xmlns="http://www.w3.org/2000/svg" width="16.964" height="21.343" viewBox="0 0 16.964 21.343"><defs><style>.a,.b{fill:none;stroke:#707070;stroke-miterlimit:10;stroke-width:1.3px;}.b{stroke-linecap:round;}</style></defs><g transform="translate(0.65 0.65)"><path class="a" d="M183.4,321.175a1.044,1.044,0,0,0-.19-.315l-4.83-4.657a.951.951,0,0,0-.286-.211.629.629,0,0,0-.094-.036.9.9,0,0,0-.247-.053.362.362,0,0,0-.066-.014h-7.9a2.059,2.059,0,0,0-1.957,2.147v15.748a2.059,2.059,0,0,0,1.957,2.147h11.749a2.059,2.059,0,0,0,1.958-2.147V321.619c0-.022-.011-.042-.014-.067a1.041,1.041,0,0,0-.049-.277A.594.594,0,0,0,183.4,321.175Zm-5.025-4.908v3.584a1.03,1.03,0,0,0,.978,1.073H183.2" transform="translate(-167.83 -315.888)"/><line class="b" x1="8.526" transform="translate(3.568 8.295)"/><line class="b" x1="8.526" transform="translate(3.568 12.274)"/><line class="b" x1="8.526" transform="translate(3.568 16.253)"/></g></svg>