<svg xmlns="http://www.w3.org/2000/svg" width="80.635" height="85.223" viewBox="0 0 80.635 85.223"><defs><style>.a{fill:#c8c8c8;}</style></defs><g transform="translate(-355.63 -186.517)"><g transform="translate(355.63 186.517)"><path class="a" d="M365.1,210.57l-.955-1.234a8.119,8.119,0,0,1,2.946-12.6c0-.03,0-.064,0-.1.017-.995.059-3.326,3.594-5.847a8.82,8.82,0,0,1,5.907-1.238,18.31,18.31,0,0,1,1.636-1.416,8.169,8.169,0,0,1,9.76,0,17.226,17.226,0,0,1,1.65,1.433,9.546,9.546,0,0,1,6.454,1.765,9.253,9.253,0,0,1,3.023,5.4,8.1,8.1,0,0,1,2.936,12.627l-.986,1.151-1.214-1.039.98-1.144a6.51,6.51,0,0,0-2.462-10.175l-.736-.311-.086-.8a7.691,7.691,0,0,0-2.455-4.463,8.235,8.235,0,0,0-5.634-1.391l-.4.057-.282-.283a18.829,18.829,0,0,0-1.735-1.537,6.514,6.514,0,0,0-7.873,0,19.636,19.636,0,0,0-1.74,1.539l-.3.3-.417-.079c-.03-.006-3.063-.554-5.1.906-2.881,2.054-2.911,3.757-2.926,4.574,0,.156-.007.285-.019.385l-.1.791-.729.309a6.524,6.524,0,0,0-2.453,10.188l.972,1.255Z" transform="translate(-352.763 -186.517)"/><path class="a" d="M390.076,224.9l-6.827-3.049a6.966,6.966,0,0,1-3.625-5.616v-2.246h1.6v2.246a5.431,5.431,0,0,0,2.729,4.181l6.776,3.026Z" transform="translate(-345.282 -174.669)"/><path class="a" d="M400.605,243.268H355.63v-.8c0-10.476,6.1-14.781,12.076-17.61l10-4.47a5.424,5.424,0,0,0,2.681-4.156v-2.246h1.6v2.246a6.948,6.948,0,0,1-3.577,5.591l-10.038,4.487c-5.618,2.662-10.842,6.382-11.133,15.359h43.364Z" transform="translate(-355.63 -174.669)"/><g transform="translate(21.361 45.497)"><path class="a" d="M372.749,230.51l-2.194-10.656,1.565-.323,1.68,8.158,4.452-3.415-5.682-4.742,1.023-1.227,7.216,6.021Z" transform="translate(-370.555 -218.305)"/><path class="a" d="M384.007,230.51l-8.057-6.185,7.214-6.021,1.023,1.227-5.679,4.742,4.448,3.415,1.681-8.157,1.565.323Z" transform="translate(-368.228 -218.305)"/></g><path class="a" d="M381,224.811l-.564-.246a22.2,22.2,0,0,1-13.265-20.3v-4.092h2.141a21.019,21.019,0,0,0,10.946-3.083l.74-.455.746.455a21.019,21.019,0,0,0,10.946,3.083h2.141v4.092a22.205,22.205,0,0,1-13.277,20.3Zm-12.23-23.036v2.492a20.592,20.592,0,0,0,12.23,18.8,20.6,20.6,0,0,0,12.233-18.8v-2.492h-.542A22.622,22.622,0,0,1,381,198.511a22.63,22.63,0,0,1-11.689,3.263Z" transform="translate(-350.653 -182.152)"/><g transform="translate(10.601 21.444)"><path class="a" d="M372.1,212.554h-4.3c-2.623,0-4.758-2.48-4.758-5.529s2.134-5.526,4.758-5.526h1.29v1.6h-1.29c-1.742,0-3.159,1.762-3.159,3.927s1.417,3.929,3.159,3.929h4.3Z" transform="translate(-363.037 -201.499)"/><path class="a" d="M388.594,212.554H384.33v-1.6h4.264c1.74,0,3.159-1.762,3.159-3.929s-1.418-3.927-3.159-3.927h-1.3v-1.6h1.3c2.624,0,4.758,2.479,4.758,5.526S391.217,212.554,388.594,212.554Z" transform="translate(-353.854 -201.499)"/></g><g transform="translate(9.042 60.34)"><rect class="a" width="1.599" height="6.697"/></g></g><g transform="translate(399.798 226.559)"><path class="a" d="M417.8,259.674h-26.15a5.164,5.164,0,0,1-5.158-5.158V219.651a5.164,5.164,0,0,1,5.158-5.158h17.768l13.541,13.543v26.48A5.167,5.167,0,0,1,417.8,259.674Zm-26.15-43.583a3.564,3.564,0,0,0-3.56,3.56v34.865a3.563,3.563,0,0,0,3.56,3.558H417.8a3.565,3.565,0,0,0,3.561-3.558V228.7l-12.605-12.607Z" transform="translate(-386.489 -214.493)"/><path class="a" d="M415.589,228.926H401.717V215.052h1.6v12.275h12.273Z" transform="translate(-379.922 -214.252)"/><path class="a" d="M410.812,232.839H393.379a.8.8,0,1,1,0-1.6h17.433a.8.8,0,1,1,0,1.6Z" transform="translate(-383.862 -207.27)"/><path class="a" d="M410.812,238.93H393.379a.8.8,0,1,1,0-1.6h17.433a.8.8,0,1,1,0,1.6Z" transform="translate(-383.862 -204.643)"/><path class="a" d="M397.739,226.751h-4.36a.8.8,0,1,1,0-1.6h4.36a.8.8,0,0,1,0,1.6Z" transform="translate(-383.862 -209.896)"/></g></g></svg>