<svg xmlns="http://www.w3.org/2000/svg" width="21" height="21" viewBox="0 0 21 21">
  <circle id="Elipse_275" data-name="Elipse 275" cx="10.5" cy="10.5" r="10.5" fill="#C8C8C8"/>
  <path id="Trazado_12851" data-name="Trazado 12851" d="M23.912-117.754a3.475,3.475,0,0,1-1.223,2.861,5.387,5.387,0,0,1-3.481.995H17.969v4.459H16.021v-11.918h3.432a5.192,5.192,0,0,1,3.346.913A3.278,3.278,0,0,1,23.912-117.754Zm-5.943,2.217H19a3.71,3.71,0,0,0,2.2-.522,1.9,1.9,0,0,0,.7-1.63,1.85,1.85,0,0,0-.628-1.533,3.1,3.1,0,0,0-1.956-.505H17.969Z" transform="translate(-8.021 125.357)" fill="#fcfcfc"/>
</svg>


