<svg xmlns="http://www.w3.org/2000/svg" width="80.635" height="85.222" viewBox="0 0 80.635 85.222"><defs><style>.a{fill:#c8c8c8;}</style></defs><g transform="translate(-423.13 -186.517)"><g transform="translate(423.13 186.517)"><path class="a" d="M432.6,210.566l-.954-1.234a8.118,8.118,0,0,1,2.945-12.6c0-.03,0-.064,0-.1.017-.995.059-3.326,3.593-5.846a8.819,8.819,0,0,1,5.906-1.238,18.318,18.318,0,0,1,1.636-1.415,8.168,8.168,0,0,1,9.758,0,17.223,17.223,0,0,1,1.65,1.432,9.546,9.546,0,0,1,6.453,1.764,9.252,9.252,0,0,1,3.022,5.4,8.1,8.1,0,0,1,2.935,12.625l-.986,1.151-1.214-1.039.98-1.143a6.509,6.509,0,0,0-2.461-10.173l-.736-.311-.086-.8a7.689,7.689,0,0,0-2.454-4.462,8.233,8.233,0,0,0-5.633-1.391l-.4.057-.282-.283a18.829,18.829,0,0,0-1.734-1.537,6.513,6.513,0,0,0-7.872,0,19.624,19.624,0,0,0-1.74,1.538l-.3.3-.416-.079c-.03-.006-3.062-.554-5.1.906-2.881,2.054-2.911,3.757-2.925,4.574,0,.156-.007.285-.019.385l-.1.791-.728.309a6.523,6.523,0,0,0-2.453,10.186l.972,1.255Z" transform="translate(-420.265 -186.517)"/><path class="a" d="M456.369,224.358l-5.621-2.51a6.965,6.965,0,0,1-3.625-5.615v-2.245h1.6v2.245a5.431,5.431,0,0,0,2.729,4.18l5.57,2.487Z" transform="translate(-412.788 -174.676)"/><path class="a" d="M461.761,243.263H423.13v-.8c0-10.474,6.1-14.778,12.074-17.608l10-4.469a5.423,5.423,0,0,0,2.68-4.156v-2.245h1.6v2.245a6.946,6.946,0,0,1-3.576,5.59l-10.036,4.486c-5.617,2.662-10.84,6.381-11.131,15.357h37.02Z" transform="translate(-423.13 -174.676)"/><g transform="translate(21.358 45.49)"><path class="a" d="M440.249,230.508l-2.194-10.654,1.565-.323,1.68,8.157,4.451-3.415-5.681-4.741,1.023-1.227,7.215,6.02Z" transform="translate(-438.055 -218.305)"/><path class="a" d="M451.505,230.508l-8.055-6.184,7.212-6.02,1.023,1.227-5.678,4.741,4.447,3.414,1.681-8.156,1.565.323Z" transform="translate(-435.729 -218.305)"/></g><path class="a" d="M448.5,224.806l-.564-.246a22.2,22.2,0,0,1-13.263-20.3v-4.091h2.141a21.016,21.016,0,0,0,10.945-3.083l.74-.455.746.455a21.016,21.016,0,0,0,10.945,3.083h2.141v4.091a22.2,22.2,0,0,1-13.274,20.3Zm-12.228-23.033v2.491a20.589,20.589,0,0,0,12.228,18.8,20.593,20.593,0,0,0,12.231-18.8v-2.491h-.542a22.619,22.619,0,0,1-11.687-3.263,22.626,22.626,0,0,1-11.687,3.263Z" transform="translate(-418.156 -182.155)"/><g transform="translate(10.6 21.44)"><path class="a" d="M439.6,212.552h-4.3c-2.623,0-4.757-2.48-4.757-5.528s2.134-5.525,4.757-5.525h1.289v1.6h-1.289c-1.742,0-3.158,1.762-3.158,3.927s1.417,3.928,3.158,3.928h4.3Z" transform="translate(-430.537 -201.499)"/><path class="a" d="M456.093,212.552H451.83v-1.6h4.263c1.74,0,3.158-1.762,3.158-3.928s-1.418-3.927-3.158-3.927h-1.3v-1.6h1.3c2.623,0,4.757,2.479,4.757,5.525S458.716,212.552,456.093,212.552Z" transform="translate(-421.359 -201.499)"/></g><g transform="translate(9.04 60.33)"><rect class="a" width="1.599" height="6.695"/></g></g><g transform="translate(460.418 228.391)"><path class="a" d="M470.859,259.126a21.674,21.674,0,1,1,21.675-21.675A21.7,21.7,0,0,1,470.859,259.126Zm0-41.722a20.048,20.048,0,1,0,20.049,20.048A20.068,20.068,0,0,0,470.859,217.4Z" transform="translate(-449.186 -215.778)"/><path class="a" d="M472.922,239.924a.8.8,0,0,1-.363-.086l-8.346-4.173a.812.812,0,0,1-.449-.727V222.422a.813.813,0,0,1,1.626,0v12.014l7.9,3.948a.813.813,0,0,1-.363,1.54Z" transform="translate(-442.903 -213.265)"/></g></g></svg>