<svg xmlns="http://www.w3.org/2000/svg" width="414" height="72.697" viewBox="0 0 414 72.697"><defs><style>.a{fill:#c2d7ca;}.b{fill:#70a283;}.c{fill:#46875f;}</style></defs><g transform="translate(0 -528.134)"><path class="a" d="M0-34.753S13.013-49.01,43.486-45.928s36,31.4,97.749,26.809,81.482-28.407,126.38-30.571,61.747,16.454,75.356,13.827,19.217-10.42,38.713-9.868A57.721,57.721,0,0,1,414-34.753V22.831H0Z" transform="translate(0 578)"/><path class="b" d="M0-42.347a95.8,95.8,0,0,0,48.109,7.554C75-37.709,89.965-57.665,119.636-53s57.875,20.721,89.789,18.563,56.9-24.429,79.1-25.235,23.384,11.517,34.551,8.81,17.037-11.242,40.3-9.719S414-43.862,414-43.862V7.054H0Z" transform="translate(0 593.777)"/><path class="c" d="M0-48.786S5.26-65.659,43.258-66.868,96-55.194,138.084-53.679s65.222-18.46,102.526-16.134,41.474,16.769,73.272,17.043,47.979-16.911,70.161-15.408A35.548,35.548,0,0,1,414-48.786v36.369H0Z" transform="translate(0 613.248)"/></g></svg>