<?xml version="1.0" encoding="utf-8"?>
<!-- Generator: Adobe Illustrator 23.0.1, SVG Export Plug-In . SVG Version: 6.00 Build 0)  -->
<svg version="1.1" id="Capa_1" xmlns="http://www.w3.org/2000/svg" xmlns:xlink="http://www.w3.org/1999/xlink" x="0px" y="0px"
	 viewBox="0 0 1366 239.9" style="enable-background:new 0 0 1366 239.9;" xml:space="preserve">
<style type="text/css">
	.st0{fill:#C2D7CA;}
	.st1{fill:#70A283;}
	.st2{fill:#46875F;}
</style>
<g transform="translate(0 -528.134)">
	<path class="st0" d="M0,627c0,0,42.9-47,143.5-36.9S262.3,693.7,466,678.6c203.7-15.1,268.9-93.7,417-100.9s203.7,54.3,248.6,45.6
		s63.4-34.4,127.7-32.6c64.3,1.8,106.6,36.2,106.6,36.2v190H0V627z"/>
	<path class="st1" d="M0,654c0,0,70,34.5,158.7,24.9c88.7-9.6,138.1-75.5,236-60.1s191,68.4,296.3,61.3
		c105.3-7.1,187.8-80.6,261-83.3c73.3-2.7,77.2,38,114,29.1c36.8-8.9,56.2-37.1,133-32.1s167,55.2,167,55.2v168H0V654z"/>
	<path class="st2" d="M0,697c0,0,17.4-55.7,142.7-59.7c125.4-4,174,38.5,312.9,43.5s215.2-60.9,338.3-53.2s136.8,55.3,241.8,56.2
		s158.3-55.8,231.5-50.8s98.8,64,98.8,64v120H0V697z"/>
</g>
</svg>
