<svg xmlns="http://www.w3.org/2000/svg" width="123.521" height="123.08" viewBox="0 0 123.521 123.08"><defs><style>.a{fill:#c8c8c8;}</style></defs><g transform="translate(-110.354 -209.33)"><g transform="translate(134.595 247.682)"><path class="a" d="M131.077,257.668l-1.169-1.516a10.247,10.247,0,0,1,3.554-15.82c.025-1.3.144-4.216,4.529-7.346a11.034,11.034,0,0,1,7.315-1.585,22.315,22.315,0,0,1,1.936-1.666,10.321,10.321,0,0,1,12.316,0,22.21,22.21,0,0,1,1.963,1.691,12.017,12.017,0,0,1,7.987,2.241,11.6,11.6,0,0,1,3.786,6.646,10.236,10.236,0,0,1,3.566,15.874l-1.213,1.416-1.927-1.652,1.2-1.4a7.7,7.7,0,0,0-2.915-12.028l-1.059-.453-.123-1.144a9.1,9.1,0,0,0-2.9-5.275c-2.712-2.163-6.655-1.654-6.69-1.648l-.626.086-.449-.445a22.988,22.988,0,0,0-2.094-1.856,7.7,7.7,0,0,0-9.319,0,23.891,23.891,0,0,0-2.1,1.858l-.474.474-.66-.125c-.038-.006-3.64-.654-6.041,1.063-3.414,2.437-3.45,4.427-3.466,5.383,0,.2-.01.37-.025.5l-.138,1.136-1.046.447a7.712,7.712,0,0,0-2.9,12.046l1.2,1.549Z" transform="translate(-115.881 -227.697)"/><path class="a" d="M197,287.141H121.963v-1.27c0-13.013,7.572-18.357,14.98-21.869l12.274-5.481c1.209-.649,3.118-2.677,3.118-4.834v-2.754h2.539v2.754c0,3.04-2.339,5.934-4.54,7.114L138,266.312c-6.738,3.193-13.013,7.645-13.475,18.29h69.9c-.459-10.643-6.738-15.1-13.5-18.3l-12.222-5.456c-2.282-1.222-4.619-4.118-4.619-7.156v-2.754h2.537v2.754c0,2.155,1.911,4.185,3.2,4.876l12.165,5.427c7.434,3.525,15.007,8.87,15.007,21.881Z" transform="translate(-121.963 -202.413)"/><g transform="translate(26.21 55.878)"><path class="a" d="M137.3,270.161l-2.786-13.522,2.488-.514,1.968,9.554,4.806-3.689-6.692-5.583,1.627-1.949,9.126,7.614Z" transform="translate(-134.515 -254.457)"/><path class="a" d="M149.5,270.161l-10.535-8.089,9.126-7.614,1.627,1.949-6.692,5.583,4.805,3.689,1.969-9.554,2.488.514Z" transform="translate(-129.672 -254.457)"/></g><path class="a" d="M148.915,271.4l-.8-.347a27.528,27.528,0,0,1-16.45-25.168v-5.308h2.911a25.534,25.534,0,0,0,13.283-3.74l1.057-.656,1.067.658a25.519,25.519,0,0,0,13.276,3.738h2.917v5.308a27.531,27.531,0,0,1-16.465,25.172Zm-14.709-28.284v2.769a24.975,24.975,0,0,0,14.713,22.75,24.978,24.978,0,0,0,14.719-22.75v-2.769h-.378a28.058,28.058,0,0,1-14.341-3.955,28.049,28.049,0,0,1-14.341,3.955Z" transform="translate(-111.404 -218.467)"/><g transform="translate(13.005 26.304)"><path class="a" d="M139.6,254.433h-5.281c-3.376,0-6.124-3.17-6.124-7.068s2.748-7.07,6.124-7.07H135.9v2.541h-1.583c-1.977,0-3.585,2.03-3.585,4.529s1.608,4.529,3.585,4.529H139.6Z" transform="translate(-128.191 -240.294)"/><path class="a" d="M151.461,254.433h-5.227v-2.539h5.227c1.98,0,3.587-2.032,3.587-4.529s-1.608-4.529-3.587-4.529h-1.587v-2.541h1.587c3.379,0,6.127,3.172,6.127,7.07S154.839,254.433,151.461,254.433Z" transform="translate(-108.558 -240.294)"/></g><g transform="translate(11.093 74.306)"><rect class="a" width="2.539" height="8.216"/><rect class="a" width="2.539" height="8.216" transform="translate(50.313)"/></g></g><g transform="translate(110.354 209.33)"><path class="a" d="M129.353,235.453a11.111,11.111,0,1,1,11.111-11.111A11.124,11.124,0,0,1,129.353,235.453Zm0-19.683a8.573,8.573,0,1,0,8.572,8.572A8.583,8.583,0,0,0,129.353,215.77Z" transform="translate(-101.771 -205.085)"/><path class="a" d="M150.625,239.848l-.129-1.764a14.837,14.837,0,0,0-14.613-12.591h-4.362A14.855,14.855,0,0,0,116.9,238.171l-.121,1.675-2.531-.184.129-1.767a17.424,17.424,0,0,1,17.146-14.94h4.362a17.405,17.405,0,0,1,17.135,14.853l.14,1.852Z" transform="translate(-106.119 -194.504)"/><path class="a" d="M134.96,264.252a4.036,4.036,0,0,1-3.151-1.67c-.908-1.13-3.648-4.953-4.667-6.377h-7a9.763,9.763,0,0,1-9.789-9.714V219.044a9.763,9.763,0,0,1,9.789-9.714h35.3a9.763,9.763,0,0,1,9.789,9.714V246.49a9.619,9.619,0,0,1-2.871,6.872l-1.787-1.8a7.092,7.092,0,0,0,2.119-5.07V219.044a7.223,7.223,0,0,0-7.25-7.177h-35.3a7.223,7.223,0,0,0-7.25,7.177V246.49a7.222,7.222,0,0,0,7.25,7.175h8.309l.38.532c.038.054,3.9,5.481,4.957,6.795.706.877,1.29.787,1.769.578.614-.265.833-.553.833-1.633v-6.273h19.048V256.2H138.93v3.734a3.9,3.9,0,0,1-2.364,3.963A4.034,4.034,0,0,1,134.96,264.252Z" transform="translate(-110.354 -209.33)"/><g transform="translate(12.06 60.494)"><rect class="a" width="18.545" height="2.539" transform="translate(0.03)"/><rect class="a" width="18.545" height="2.541" transform="translate(0.03 8.077)"/><g transform="translate(0 16.156)"><rect class="a" width="2.522" height="2.541"/><rect class="a" width="2.523" height="2.541" transform="translate(8.026)"/><rect class="a" width="2.522" height="2.541" transform="translate(16.053)"/></g></g><g transform="translate(68.647)"><path class="a" d="M162.089,235.453A11.111,11.111,0,1,1,173.2,224.342,11.124,11.124,0,0,1,162.089,235.453Zm0-19.683a8.573,8.573,0,1,0,8.572,8.572A8.581,8.581,0,0,0,162.089,215.77Z" transform="translate(-134.797 -205.085)"/><path class="a" d="M149.514,239.848l-2.533-.188.129-1.764a17.424,17.424,0,0,1,17.146-14.94h4.364a17.409,17.409,0,0,1,17.135,14.853l.14,1.854-2.533.184-.129-1.764a14.841,14.841,0,0,0-14.613-12.589h-4.364a14.853,14.853,0,0,0-14.621,12.679Z" transform="translate(-139.146 -194.504)"/><path class="a" d="M173.5,264.252a4.009,4.009,0,0,1-1.608-.351,3.9,3.9,0,0,1-2.364-3.963V256.2H153.018v-2.539h19.048v6.273c0,1.08.219,1.368.833,1.633.478.209,1.063.3,1.769-.578,1.052-1.313,4.92-6.74,4.959-6.795l.378-.532h8.309a7.222,7.222,0,0,0,7.25-7.175V219.044a7.223,7.223,0,0,0-7.25-7.177h-35.3a7.223,7.223,0,0,0-7.25,7.177V246.49a7.089,7.089,0,0,0,2.094,5.043l-1.8,1.794a9.614,9.614,0,0,1-2.836-6.836V219.044a9.763,9.763,0,0,1,9.789-9.714h35.3a9.763,9.763,0,0,1,9.789,9.714V246.49a9.763,9.763,0,0,1-9.789,9.714h-7c-1.019,1.424-3.759,5.247-4.667,6.377A4.032,4.032,0,0,1,173.5,264.252Z" transform="translate(-143.229 -209.33)"/><g transform="translate(24.239 60.494)"><rect class="a" width="18.545" height="2.539"/><rect class="a" width="18.545" height="2.541" transform="translate(0 8.077)"/><g transform="translate(0 16.156)"><rect class="a" width="2.522" height="2.541" transform="translate(16.053)"/><rect class="a" width="2.522" height="2.541" transform="translate(8.027)"/><rect class="a" width="2.522" height="2.541"/></g></g></g></g></g></svg>