<svg xmlns="http://www.w3.org/2000/svg" width="123.075" height="123.075" viewBox="0 0 123.075 123.075"><defs><style>.a{fill:#c8c8c8;}</style></defs><g transform="translate(-51.53 -46.529)"><path class="a" d="M181.374,137.708a1.323,1.323,0,0,0,1.131-.869A53.254,53.254,0,0,0,135.019,59.5h0a52.866,52.866,0,0,0-21.7,4.6,1.328,1.328,0,0,0-.9,1.1,1.651,1.651,0,0,0,.649,1.462,1.322,1.322,0,0,0,1.406.072,50.4,50.4,0,0,1,65.495,68.782,1.343,1.343,0,0,0-.056,1.456A1.652,1.652,0,0,0,181.374,137.708Z" transform="translate(-21.951 -4.677)"/><path class="a" d="M173.654,140.287a19.39,19.39,0,0,0,7.5-7.325,1.389,1.389,0,0,0,.068-1.412,1.518,1.518,0,0,0-1.294-.794,1.463,1.463,0,0,0-1.215.694,16.59,16.59,0,0,1-6.378,6.285,1.435,1.435,0,0,0,1.315,2.551Z" transform="translate(-43.27 -30.369)"/><path class="a" d="M71.436,103.881a1.444,1.444,0,0,0-1.216.792,53.251,53.251,0,0,0,47.514,77.318,52.838,52.838,0,0,0,21.679-4.6,1.438,1.438,0,1,0-1.164-2.629,50.4,50.4,0,0,1-65.484-68.787,1.433,1.433,0,0,0-1.329-2.1Z" transform="translate(-4.666 -20.678)"/><path class="a" d="M137.275,169.7A58.673,58.673,0,0,1,66.818,80.139a1.442,1.442,0,0,0-.119-1.9l-6.135-6.16h17.91v17.91L72.606,84.14a1.324,1.324,0,0,0-1.345-.443,1.648,1.648,0,0,0-1.127,1.132,1.319,1.319,0,0,0,.443,1.335l8.3,8.3a1.434,1.434,0,0,0,2.459-1.013v-22.8a1.424,1.424,0,0,0-.42-1.021,1.45,1.45,0,0,0-1.019-.42H57.1a1.433,1.433,0,0,0-1.016,2.444l7.737,7.763-.325.442A60.993,60.993,0,0,0,51.53,116.245a61.572,61.572,0,0,0,86.93,56.073,1.374,1.374,0,0,0,.8-.841,1.52,1.52,0,0,0-.088-1.061A1.361,1.361,0,0,0,137.275,169.7Z" transform="translate(0 -8.178)"/><path class="a" d="M111.334,131.46a1.471,1.471,0,0,0-1.264-.7,1.525,1.525,0,0,0-1.26.814,1.367,1.367,0,0,0,.074,1.383,19.406,19.406,0,0,0,7.524,7.349,1.346,1.346,0,0,0,1.463.066,1.66,1.66,0,0,0,.749-1.47,1.322,1.322,0,0,0-.882-1.129A16.593,16.593,0,0,1,111.334,131.46Z" transform="translate(-20.597 -30.369)"/><path class="a" d="M162.339,117.835H147.816a26.394,26.394,0,0,0-26.2,24.287l-.045.591H116.76A23.286,23.286,0,0,1,93.43,121.4l-.062-.7h13a23.3,23.3,0,0,1,13.733,4.42,1.328,1.328,0,0,0,1.406.235,1.646,1.646,0,0,0,.936-1.3,1.313,1.313,0,0,0-.659-1.247,26.145,26.145,0,0,0-15.416-4.97H91.888a1.439,1.439,0,0,0-1.432,1.418,26.343,26.343,0,0,0,26.3,26.327h4.752v15.143a1.435,1.435,0,0,0,2.87,0V144.139A23.462,23.462,0,0,1,147.816,120.7h13.066l-.062.7a23.286,23.286,0,0,1-23.33,21.317h-6.231a1.435,1.435,0,0,0-1.436,1.427l-.02,16.583a1.433,1.433,0,1,0,2.866,0l.021-15.143h4.8a26.342,26.342,0,0,0,26.3-26.32,1.375,1.375,0,0,0-.4-.995A1.472,1.472,0,0,0,162.339,117.835Z" transform="translate(-14.035 -25.71)"/><path class="a" d="M182.183,144.893l.325-.441A61.526,61.526,0,0,0,107.545,52a1.434,1.434,0,1,0,1.184,2.612,58.622,58.622,0,0,1,70.413,89.522,1.431,1.431,0,0,0,.147,1.918l6.164,6.183H167.531V134.328l5.864,5.844a1.319,1.319,0,0,0,1.345.443,1.644,1.644,0,0,0,1.127-1.133,1.316,1.316,0,0,0-.442-1.334l-8.3-8.3a1.443,1.443,0,0,0-1-.408h-.032a1.427,1.427,0,0,0-1.407,1.428v22.792a1.436,1.436,0,0,0,1.428,1.441H188.9a1.434,1.434,0,0,0,1.016-2.444Z" transform="translate(-19.886 0)"/></g></svg>