<svg xmlns="http://www.w3.org/2000/svg" width="108.451" height="123" viewBox="0 0 108.451 123"><defs><style>.a{fill:#ccc;}</style></defs><path class="a" d="M106.7,8.57c-4.772-3.815-11.454-2.861-11.454-2.861a36.584,36.584,0,0,0-3.36-2.972,13.323,13.323,0,0,0-16.182,0,36.586,36.586,0,0,0-3.36,2.972s-6.17-1.186-10.5,1.916c-6.681,4.763-5.847,8.89-6,10.113l-.071.605-.561.246a13.427,13.427,0,0,0-5.058,20.979l.608.738-.669.664A10.578,10.578,0,0,0,57.612,59h5.673l.3.534a37.906,37.906,0,0,0,9.232,10.89l.391.315v4.118a6.888,6.888,0,0,1-3.961,6.224l-20.138,9.4A33.948,33.948,0,0,0,29.57,121.14V123H138.021v-1.86a33.948,33.948,0,0,0-19.54-30.661l-20.147-9.4a6.888,6.888,0,0,1-3.961-6.224V70.735l.391-.315a37.933,37.933,0,0,0,9.242-10.888l.3-.534h5.673A10.578,10.578,0,0,0,117.5,40.969l-.669-.676.608-.738a13.424,13.424,0,0,0-5.058-20.976l-.561-.246-.071-.608A15.427,15.427,0,0,0,106.7,8.57ZM57.612,55.276a6.868,6.868,0,1,1,0-13.735H58.62l.1,1.006a37.237,37.237,0,0,0,2.251,11.316l.519,1.41ZM80.8,91.972,73.282,97.61,69.528,82.579Zm-6.426-10.2.563-.792a10.549,10.549,0,0,0,1.968-5.9l.037-1.722,1.513.824a37.331,37.331,0,0,0,4.674,2.16l.649.246.659-.246a37.679,37.679,0,0,0,4.674-2.157l1.515-.822.034,1.722a10.529,10.529,0,0,0,1.968,5.9l.566.792-9.4,7.85Zm26.568,4.625,15.978,7.456a30.258,30.258,0,0,1,17.22,24.273l.118,1.156h-13.7V107.644h-3.7V119.28H50.743V107.644H47.026V119.28h-13.7l.118-1.156a30.285,30.285,0,0,1,17.22-24.275l15.99-7.461,4.386,17.55L83.8,94.373l12.76,9.572Zm-2.876-3.818L94.3,97.605l-7.518-5.638ZM105.2,41A34.353,34.353,0,0,1,84.184,72.429l-.4.165-.4-.165A34.33,34.33,0,0,1,62.394,41.008V35.721h2.2a36.509,36.509,0,0,0,18.676-5.14l.526-.324.536.32a36.511,36.511,0,0,0,18.679,5.141h2.2Zm11.638,7.4a6.888,6.888,0,0,1-6.868,6.868H106.1l.517-1.41a37.392,37.392,0,0,0,2.251-11.316l.044-1h1.006a6.888,6.888,0,0,1,6.93,6.866Zm0-17.466a9.675,9.675,0,0,1-3.077,7.043l-.431.408-.573-.157a10.352,10.352,0,0,0-2.787-.423h-1.05V32h-5.906A32.7,32.7,0,0,1,84.826,26.5L83.8,25.808l-1.033.689A32.689,32.689,0,0,1,64.581,32H58.662v5.82h-1.05a10.352,10.352,0,0,0-2.787.423l-.573.157-.431-.408a9.68,9.68,0,0,1,4.293-16.482l1.461-.374-.064-1.51v-.116l-.032-.2v-.445a9.84,9.84,0,0,1,4.244-7.656A9.594,9.594,0,0,1,72.694,10.2l1.589.6.738-1.53a9.71,9.71,0,0,1,17.547,0l.738,1.528,1.589-.6a9.7,9.7,0,0,1,13.23,8.927l-.1,2.034,1.454.369a9.759,9.759,0,0,1,7.373,9.427Z" transform="translate(-29.569 0)"/></svg>